<?xml version="1.0" encoding="UTF-8" standalone="no"?>
<!-- Created with Inkscape (http://www.inkscape.org/) -->

<svg
   width="1024mm"
   height="512mm"
   viewBox="0 0 1024 512"
   version="1.1"
   id="svg1"
   inkscape:version="1.3.2 (091e20e, 2023-11-25)"
   sodipodi:docname="drawing.svg"
   xmlns:inkscape="http://www.inkscape.org/namespaces/inkscape"
   xmlns:sodipodi="http://sodipodi.sourceforge.net/DTD/sodipodi-0.dtd"
   xmlns="http://www.w3.org/2000/svg"
   xmlns:svg="http://www.w3.org/2000/svg">
  <sodipodi:namedview
     id="namedview1"
     pagecolor="#ffffff"
     bordercolor="#000000"
     borderopacity="0.25"
     inkscape:showpageshadow="2"
     inkscape:pageopacity="0.0"
     inkscape:pagecheckerboard="0"
     inkscape:deskcolor="#d1d1d1"
     inkscape:document-units="mm"
     showgrid="true"
     inkscape:zoom="0.30729267"
     inkscape:cx="1963.9258"
     inkscape:cy="1280.5382"
     inkscape:window-width="1712"
     inkscape:window-height="1040"
     inkscape:window-x="0"
     inkscape:window-y="44"
     inkscape:window-maximized="1"
     inkscape:current-layer="svg1">
    <inkscape:grid
       id="grid1"
       units="mm"
       originx="0"
       originy="0"
       spacingx="0.99999997"
       spacingy="0.99999997"
       empcolor="#0099e5"
       empopacity="0.30196078"
       color="#0099e5"
       opacity="0.14901961"
       empspacing="5"
       dotted="false"
       gridanglex="30"
       gridanglez="30"
       visible="true" />
  </sodipodi:namedview>
  <defs
     id="defs1">
    <marker
       style="overflow:visible"
       id="marker10"
       refX="0"
       refY="0"
       orient="auto-start-reverse"
       inkscape:stockid="Wide arrow"
       markerWidth="1"
       markerHeight="1"
       viewBox="0 0 1 1"
       inkscape:isstock="true"
       inkscape:collect="always"
       preserveAspectRatio="xMidYMid">
      <path
         style="fill:none;stroke:context-stroke;stroke-width:1;stroke-linecap:butt"
         d="M 3,-3 0,0 3,3"
         transform="rotate(180,0.125,0)"
         sodipodi:nodetypes="ccc"
         id="path10" />
    </marker>
    <marker
       style="overflow:visible"
       id="ArrowWide"
       refX="0"
       refY="0"
       orient="auto-start-reverse"
       inkscape:stockid="Wide arrow"
       markerWidth="1"
       markerHeight="1"
       viewBox="0 0 1 1"
       inkscape:isstock="true"
       inkscape:collect="always"
       preserveAspectRatio="xMidYMid">
      <path
         style="fill:none;stroke:context-stroke;stroke-width:1;stroke-linecap:butt"
         d="M 3,-3 0,0 3,3"
         transform="rotate(180,0.125,0)"
         sodipodi:nodetypes="ccc"
         id="path2" />
    </marker>
    <marker
       style="overflow:visible"
       id="ArrowWide-3"
       refX="0"
       refY="0"
       orient="auto-start-reverse"
       inkscape:stockid="Wide arrow"
       markerWidth="1"
       markerHeight="1"
       viewBox="0 0 1 1"
       inkscape:isstock="true"
       inkscape:collect="always"
       preserveAspectRatio="xMidYMid">
      <path
         style="fill:none;stroke:context-stroke;stroke-width:1;stroke-linecap:butt"
         d="M 3,-3 0,0 3,3"
         transform="rotate(180,0.125,0)"
         sodipodi:nodetypes="ccc"
         id="path2-8" />
    </marker>
  </defs>
  <path
     style="fill:#000000;fill-opacity:0;stroke:#000000;stroke-width:3;stroke-dasharray:none;marker-end:url(#marker10)"
     d="M -98.155611,191.14514 C -44.352939,138.28954 17.453084,120.35766 96.433575,177.36891"
     id="path9"
     sodipodi:nodetypes="cc"
     transform="translate(514.02544,0.86101415)"
     inkscape:label="center_arrow" />
  <g
     inkscape:label="Layer 1"
     inkscape:groupmode="layer"
     id="layer1">
    <g
       id="g4"
       inkscape:label="left_coordinate"
       transform="translate(-16.359269)">
      <path
         style="fill:#000000;fill-opacity:1;stroke:#000000;stroke-width:2;stroke-dasharray:none;marker-start:url(#ArrowWide)"
         d="m 138.10522,48.416196 2.38112,410.347114"
         id="path1"
         inkscape:label="y-axis" />
      <path
         style="fill:#000000;fill-opacity:1;stroke:#000000;stroke-width:1.9073;stroke-dasharray:none;marker-start:url(#ArrowWide-3)"
         d="m 459.4964,428.3454 -363.751202,1.352"
         id="path1-5"
         inkscape:label="x-axis" />
      <g
         inkscape:label="origin"
         transform="matrix(4.4669517,0,0,4.4669517,117.63112,437.00201)"
         id="g3">
        <g
           fill="#000000"
           fill-opacity="1"
           id="g2"
           transform="matrix(0.352778,0,0,0.352778,-1.03382,-0.56268)">
          <g
             id="use1"
             transform="translate(1.993,17.969999)">
            <path
               d="m 10.40625,-7.953125 c 0,-1.515625 -0.01563,-4.09375 -1.0625,-6.078125 -0.921875,-1.734375 -2.375,-2.34375 -3.671875,-2.34375 -1.1875,0 -2.703125,0.546875 -3.640625,2.328125 -0.984375,1.859375 -1.09375,4.15625 -1.09375,6.09375 0,1.40625 0.03125,3.5625 0.796875,5.453125 1.0625,2.546875 2.96875,2.890625 3.9375,2.890625 1.140625,0 2.875,-0.46875 3.890625,-2.8125 0.75,-1.71875 0.84375,-3.71875 0.84375,-5.53125 z M 5.671875,0 C 4.09375,0 3.140625,-1.359375 2.796875,-3.25 2.53125,-4.703125 2.53125,-6.84375 2.53125,-8.234375 c 0,-1.90625 0,-3.484375 0.3125,-5 0.484375,-2.109375 1.859375,-2.75 2.828125,-2.75 1.015625,0 2.328125,0.671875 2.796875,2.703125 0.328125,1.40625 0.359375,3.078125 0.359375,5.046875 0,1.625 0,3.59375 -0.296875,5.0625 C 8,-0.46875 6.546875,0 5.671875,0 Z m 0,0"
               id="path3" />
          </g>
        </g>
      </g>
    </g>
    <g
       id="g9"
       inkscape:label="right_coordinate"
       transform="translate(514.02544,0.86101414)">
      <path
         style="fill:#000000;fill-opacity:1;stroke:#000000;stroke-width:2;stroke-dasharray:none;marker-start:url(#ArrowWide)"
         d="m 138.10522,48.416196 2.38112,410.347114"
         id="path4"
         inkscape:label="y-axis" />
      <path
         style="fill:#000000;fill-opacity:1;stroke:#000000;stroke-width:1.9073;stroke-dasharray:none;marker-start:url(#ArrowWide-3)"
         d="m 459.4964,428.3454 -363.751202,1.352"
         id="path5"
         inkscape:label="x-axis" />
      <g
         inkscape:label="origin"
         transform="matrix(4.4669517,0,0,4.4669517,117.63112,437.00201)"
         id="g8">
        <g
           fill="#000000"
           fill-opacity="1"
           id="g7"
           transform="matrix(0.352778,0,0,0.352778,-1.03382,-0.56268)">
          <g
             id="g6"
             transform="translate(1.993,17.969999)">
            <path
               d="m 10.40625,-7.953125 c 0,-1.515625 -0.01563,-4.09375 -1.0625,-6.078125 -0.921875,-1.734375 -2.375,-2.34375 -3.671875,-2.34375 -1.1875,0 -2.703125,0.546875 -3.640625,2.328125 -0.984375,1.859375 -1.09375,4.15625 -1.09375,6.09375 0,1.40625 0.03125,3.5625 0.796875,5.453125 1.0625,2.546875 2.96875,2.890625 3.9375,2.890625 1.140625,0 2.875,-0.46875 3.890625,-2.8125 0.75,-1.71875 0.84375,-3.71875 0.84375,-5.53125 z M 5.671875,0 C 4.09375,0 3.140625,-1.359375 2.796875,-3.25 2.53125,-4.703125 2.53125,-6.84375 2.53125,-8.234375 c 0,-1.90625 0,-3.484375 0.3125,-5 0.484375,-2.109375 1.859375,-2.75 2.828125,-2.75 1.015625,0 2.328125,0.671875 2.796875,2.703125 0.328125,1.40625 0.359375,3.078125 0.359375,5.046875 0,1.625 0,3.59375 -0.296875,5.0625 C 8,-0.46875 6.546875,0 5.671875,0 Z m 0,0"
               id="path6" />
          </g>
        </g>
      </g>
    </g>
  </g>
</svg>
