<?xml version="1.0" encoding="UTF-8" standalone="no"?>
<!-- Created with Inkscape (http://www.inkscape.org/) -->

<svg
   width="1024mm"
   height="1024mm"
   viewBox="0 0 1024 1024"
   version="1.1"
   id="svg32940"
   sodipodi:docname="asymptotic_cone_of_graph_of_x*x.svg"
   inkscape:version="1.2.2 (b0a84865, 2022-12-01)"
   xmlns:inkscape="http://www.inkscape.org/namespaces/inkscape"
   xmlns:sodipodi="http://sodipodi.sourceforge.net/DTD/sodipodi-0.dtd"
   xmlns="http://www.w3.org/2000/svg"
   xmlns:svg="http://www.w3.org/2000/svg">
  <sodipodi:namedview
     id="namedview32942"
     pagecolor="#ffffff"
     bordercolor="#000000"
     borderopacity="0.25"
     inkscape:showpageshadow="2"
     inkscape:pageopacity="0.0"
     inkscape:pagecheckerboard="0"
     inkscape:deskcolor="#d1d1d1"
     inkscape:document-units="mm"
     showgrid="false"
     inkscape:zoom="0.21463455"
     inkscape:cx="1819.3716"
     inkscape:cy="570.73756"
     inkscape:window-width="2189"
     inkscape:window-height="1151"
     inkscape:window-x="0"
     inkscape:window-y="25"
     inkscape:window-maximized="0"
     inkscape:current-layer="layer2" />
  <defs
     id="defs32937">
    <inkscape:path-effect
       effect="spiro"
       id="path-effect72689"
       is_visible="true"
       lpeversion="1" />
    <inkscape:path-effect
       effect="spiro"
       id="path-effect33915"
       is_visible="true"
       lpeversion="1" />
    <inkscape:path-effect
       effect="spiro"
       id="path-effect33494"
       is_visible="true"
       lpeversion="1" />
    <inkscape:path-effect
       effect="spiro"
       id="path-effect33486"
       is_visible="true"
       lpeversion="1" />
  </defs>
  <g
     inkscape:label="base_line"
     inkscape:groupmode="layer"
     id="layer1">
    <path
       style="fill:#000000;fill-opacity:0;stroke:#000000;stroke-width:5;stroke-linejoin:bevel;stroke-dasharray:none;stroke-opacity:0.95795798"
       d="m 114.75381,846.67722 807.99647,1.87454"
       id="path33492"
       inkscape:path-effect="#path-effect33494"
       inkscape:original-d="m 114.75381,846.67722 c 268.29674,4.44673 538.66444,1.25207 807.99647,1.87454"
       inkscape:label="x-axis" />
    <path
       style="fill:#000000;fill-opacity:0;stroke:#000000;stroke-width:4.99999;stroke-linejoin:bevel;stroke-dasharray:none;stroke-opacity:0.957958"
       d="M 524.64357,965.628 524.84093,73.07412"
       id="path33913"
       inkscape:path-effect="#path-effect33915"
       inkscape:original-d="m 524.64357,965.628 c -0.33329,-297.51993 0.13185,-595.03564 0.19736,-892.55388"
       inkscape:label="y-axis" />
    <g
       inkscape:label="zero"
       transform="matrix(1.742638,0,0,1.742638,549.11411,870.37793)"
       id="g35025">
      <g
         fill="#000000"
         fill-opacity="1"
         id="g12"
         transform="matrix(3.52778,0,0,3.52778,-325.669,-265.721)">
        <g
           id="use10"
           transform="translate(91.925003,81.962997)">
          <path
             d="m 4.578125,-3.1875 c 0,-0.796875 -0.046875,-1.59375 -0.390625,-2.328125 -0.453125,-0.96875 -1.28125,-1.125 -1.6875,-1.125 -0.609375,0 -1.328125,0.265625 -1.75,1.1875 -0.3125,0.6875 -0.359375,1.46875 -0.359375,2.265625 0,0.75 0.03125,1.640625 0.453125,2.40625 0.421875,0.796875 1.15625,1 1.640625,1 0.53125,0 1.296875,-0.203125 1.734375,-1.15625 0.3125,-0.6875 0.359375,-1.46875 0.359375,-2.25 z M 2.484375,0 C 2.09375,0 1.5,-0.25 1.328125,-1.203125 1.21875,-1.796875 1.21875,-2.71875 1.21875,-3.3125 c 0,-0.640625 0,-1.296875 0.078125,-1.828125 0.1875,-1.1875 0.9375,-1.28125 1.1875,-1.28125 0.328125,0 0.984375,0.1875 1.171875,1.171875 0.109375,0.5625 0.109375,1.3125 0.109375,1.9375 0,0.75 0,1.421875 -0.109375,2.0625 C 3.5,-0.296875 2.9375,0 2.484375,0 Z m 0,0"
             id="path18" />
        </g>
      </g>
    </g>
  </g>
  <g
     inkscape:groupmode="layer"
     id="layer2"
     inkscape:label="x*x_graph">
    <path
       style="fill:#000000;fill-opacity:0;stroke:#000000;stroke-width:4.99999;stroke-linejoin:bevel;stroke-dasharray:none;stroke-opacity:0.957958"
       d="m 172.51808,138.97291 c 15.734,62.9328 31.468,121.6738 47.203,176.2238 15.734,54.55 31.468,104.891 47.203,151.049 15.734,46.158 31.468,88.108 47.202,125.874 15.735,37.767 31.469,71.325 47.203,100.7 15.735,29.375 31.469,54.541 47.203,75.524 15.734,20.984 31.469,37.758 47.203,50.35 15.734,12.592 31.469,20.975 47.203,25.175 15.734,4.2 31.468,4.192 47.203,0 15.734,-4.192 31.468,-12.592 47.202,-25.175 15.735,-12.583 31.469,-29.375 47.203,-50.35 15.735,-20.974 31.469,-46.158 47.203,-75.524 15.734,-29.367 31.469,-62.941 47.203,-100.7 15.734,-37.758 31.469,-79.724 47.203,-125.874 15.734,-46.15 31.468,-96.508 47.203,-151.049 15.734,-54.541 31.468,-113.291 47.203,-176.2238"
       title="x*x"
       id="path35582" />
    <g
       inkscape:label=""
       transform="matrix(2.0569828,0,0,2.0569828,860.86917,73.132923)"
       id="g66924"
       style="fill:#ff0000;fill-opacity:1">
      <g
         fill="#000000"
         fill-opacity="1"
         id="g66922"
         transform="matrix(3.52778,0,0,3.52778,-326.055,-264.343)">
        <g
           id="g66920"
           transform="translate(91.925003,81.962997)">
          <path
             d="m 7.578125,-6.921875 c 0,-0.03125 -0.015625,-0.109375 -0.109375,-0.109375 -0.03125,0 -0.046875,0.015625 -0.15625,0.125 L 6.625,-6.140625 C 6.53125,-6.28125 6.078125,-7.03125 4.96875,-7.03125 2.734375,-7.03125 0.5,-4.828125 0.5,-2.515625 0.5,-0.875 1.671875,0.21875 3.203125,0.21875 c 0.859375,0 1.625,-0.390625 2.15625,-0.859375 0.921875,-0.8125 1.09375,-1.71875 1.09375,-1.75 C 6.453125,-2.5 6.34375,-2.5 6.328125,-2.5 c -0.0625,0 -0.109375,0.03125 -0.125,0.109375 -0.09375,0.28125 -0.328125,1 -1.015625,1.578125 -0.6875,0.546875 -1.3125,0.71875 -1.828125,0.71875 -0.890625,0 -1.953125,-0.515625 -1.953125,-2.0625 0,-0.578125 0.203125,-2.1875 1.203125,-3.359375 0.609375,-0.703125 1.546875,-1.203125 2.4375,-1.203125 1.015625,0 1.609375,0.765625 1.609375,1.921875 0,0.40625 -0.03125,0.40625 -0.03125,0.515625 0,0.09375 0.109375,0.09375 0.140625,0.09375 0.125,0 0.125,-0.015625 0.1875,-0.203125 z m 0,0"
             id="path66918" />
        </g>
      </g>
    </g>
    <path
       style="fill:#00ff00;stroke:#00e300;stroke-width:7;stroke-linejoin:bevel;fill-opacity:1;stroke-opacity:1;stroke-dasharray:none"
       d="M 523.95119,847.81333 524.59252,92.348806"
       id="path72687"
       inkscape:path-effect="#path-effect72689"
       inkscape:original-d="M 523.95119,847.81333 C 524.379,595.99207 524.379,344.17058 524.59252,92.348806" />
    <g
       inkscape:label=""
       transform="matrix(2.1471781,0,0,2.1471781,566.43228,150.76967)"
       id="g74705"
       style="fill:#00e300;fill-opacity:1">
      <g
         fill="#000000"
         fill-opacity="1"
         id="g16"
         transform="matrix(3.52778,0,0,3.52778,-326.055,-264.343)"
         style="fill:#00e300;fill-opacity:1">
        <g
           id="use14"
           transform="translate(91.925003,81.962997)"
           style="fill:#00e300;fill-opacity:1">
          <path
             d="m 7.578125,-6.921875 c 0,-0.03125 -0.015625,-0.109375 -0.109375,-0.109375 -0.03125,0 -0.046875,0.015625 -0.15625,0.125 L 6.625,-6.140625 C 6.53125,-6.28125 6.078125,-7.03125 4.96875,-7.03125 2.734375,-7.03125 0.5,-4.828125 0.5,-2.515625 0.5,-0.875 1.671875,0.21875 3.203125,0.21875 c 0.859375,0 1.625,-0.390625 2.15625,-0.859375 0.921875,-0.8125 1.09375,-1.71875 1.09375,-1.75 C 6.453125,-2.5 6.34375,-2.5 6.328125,-2.5 c -0.0625,0 -0.109375,0.03125 -0.125,0.109375 -0.09375,0.28125 -0.328125,1 -1.015625,1.578125 -0.6875,0.546875 -1.3125,0.71875 -1.828125,0.71875 -0.890625,0 -1.953125,-0.515625 -1.953125,-2.0625 0,-0.578125 0.203125,-2.1875 1.203125,-3.359375 0.609375,-0.703125 1.546875,-1.203125 2.4375,-1.203125 1.015625,0 1.609375,0.765625 1.609375,1.921875 0,0.40625 -0.03125,0.40625 -0.03125,0.515625 0,0.09375 0.109375,0.09375 0.140625,0.09375 0.125,0 0.125,-0.015625 0.1875,-0.203125 z m 0,0"
             id="path26"
             style="fill:#00e300;fill-opacity:1" />
        </g>
      </g>
      <g
         fill="#000000"
         fill-opacity="1"
         id="g20"
         transform="matrix(3.52778,0,0,3.52778,-326.055,-264.343)"
         style="fill:#00e300;fill-opacity:1">
        <g
           id="use18"
           transform="translate(99.045998,83.457001)"
           style="fill:#00e300;fill-opacity:1">
          <path
             d="m 4.03125,-1.90625 c -0.375,-0.4375 -0.484375,-0.546875 -0.75,-0.734375 -0.421875,-0.3125 -0.875,-0.4375 -1.25,-0.4375 -0.875,0 -1.5,0.75 -1.5,1.578125 0,0.8125 0.609375,1.5625 1.46875,1.5625 0.96875,0 1.65625,-0.78125 1.90625,-1.15625 0.359375,0.4375 0.484375,0.546875 0.734375,0.734375 0.4375,0.3125 0.875,0.421875 1.265625,0.421875 0.859375,0 1.484375,-0.734375 1.484375,-1.5625 0,-0.828125 -0.59375,-1.578125 -1.46875,-1.578125 -0.96875,0 -1.640625,0.796875 -1.890625,1.171875 z m 0.21875,0.25 c 0.28125,-0.453125 0.890625,-1.15625 1.734375,-1.15625 0.71875,0 1.21875,0.640625 1.21875,1.3125 0,0.65625 -0.546875,1.1875 -1.1875,1.1875 -0.65625,0 -1.09375,-0.53125 -1.765625,-1.34375 z M 3.671875,-1.359375 C 3.40625,-0.90625 2.796875,-0.1875 1.9375,-0.1875 c -0.71875,0 -1.203125,-0.640625 -1.203125,-1.3125 0,-0.671875 0.546875,-1.1875 1.1875,-1.1875 0.640625,0 1.09375,0.53125 1.75,1.328125 z m 0,0"
             id="path30"
             style="fill:#00e300;fill-opacity:1" />
        </g>
      </g>
    </g>
  </g>
</svg>
