<?xml version="1.0" encoding="UTF-8" standalone="no"?>
<!-- Created with Inkscape (http://www.inkscape.org/) -->

<svg
   width="1024mm"
   height="512mm"
   viewBox="0 0 1024 512"
   version="1.1"
   id="svg1"
   inkscape:version="1.3.2 (091e20e, 2023-11-25)"
   sodipodi:docname="vector_opt.svg"
   xmlns:inkscape="http://www.inkscape.org/namespaces/inkscape"
   xmlns:sodipodi="http://sodipodi.sourceforge.net/DTD/sodipodi-0.dtd"
   xmlns="http://www.w3.org/2000/svg"
   xmlns:svg="http://www.w3.org/2000/svg">
  <sodipodi:namedview
     id="namedview1"
     pagecolor="#ffffff"
     bordercolor="#000000"
     borderopacity="0.25"
     inkscape:showpageshadow="2"
     inkscape:pageopacity="0.0"
     inkscape:pagecheckerboard="0"
     inkscape:deskcolor="#d1d1d1"
     inkscape:document-units="mm"
     showgrid="true"
     inkscape:zoom="0.30729267"
     inkscape:cx="1963.9258"
     inkscape:cy="1280.5382"
     inkscape:window-width="1712"
     inkscape:window-height="1040"
     inkscape:window-x="0"
     inkscape:window-y="44"
     inkscape:window-maximized="1"
     inkscape:current-layer="svg1">
    <inkscape:grid
       id="grid1"
       units="mm"
       originx="0"
       originy="0"
       spacingx="0.99999997"
       spacingy="0.99999997"
       empcolor="#0099e5"
       empopacity="0.30196078"
       color="#0099e5"
       opacity="0.14901961"
       empspacing="5"
       dotted="false"
       gridanglex="30"
       gridanglez="30"
       visible="true" />
  </sodipodi:namedview>
  <defs
     id="defs1">
    <marker
       style="overflow:visible"
       id="marker26"
       refX="0"
       refY="0"
       orient="auto-start-reverse"
       inkscape:stockid="Wide arrow"
       markerWidth="1"
       markerHeight="1"
       viewBox="0 0 1 1"
       inkscape:isstock="true"
       inkscape:collect="always"
       preserveAspectRatio="xMidYMid">
      <path
         style="fill:none;stroke:context-stroke;stroke-width:1;stroke-linecap:butt"
         d="M 3,-3 0,0 3,3"
         transform="rotate(180,0.125,0)"
         sodipodi:nodetypes="ccc"
         id="path26" />
    </marker>
    <marker
       style="overflow:visible"
       id="marker20"
       refX="0"
       refY="0"
       orient="auto-start-reverse"
       inkscape:stockid="Wide arrow"
       markerWidth="1"
       markerHeight="1"
       viewBox="0 0 1 1"
       inkscape:isstock="true"
       inkscape:collect="always"
       preserveAspectRatio="xMidYMid">
      <path
         style="fill:none;stroke:context-stroke;stroke-width:1;stroke-linecap:butt"
         d="M 3,-3 0,0 3,3"
         transform="rotate(180,0.125,0)"
         sodipodi:nodetypes="ccc"
         id="path20" />
    </marker>
    <marker
       style="overflow:visible"
       id="marker14"
       refX="0"
       refY="0"
       orient="auto-start-reverse"
       inkscape:stockid="Wide arrow"
       markerWidth="1"
       markerHeight="1"
       viewBox="0 0 1 1"
       inkscape:isstock="true"
       inkscape:collect="always"
       preserveAspectRatio="xMidYMid">
      <path
         style="fill:none;stroke:context-stroke;stroke-width:1;stroke-linecap:butt"
         d="M 3,-3 0,0 3,3"
         transform="rotate(180,0.125,0)"
         sodipodi:nodetypes="ccc"
         id="path14" />
    </marker>
    <marker
       style="overflow:visible"
       id="marker8"
       refX="0"
       refY="0"
       orient="auto-start-reverse"
       inkscape:stockid="Wide arrow"
       markerWidth="1"
       markerHeight="1"
       viewBox="0 0 1 1"
       inkscape:isstock="true"
       inkscape:collect="always"
       preserveAspectRatio="xMidYMid">
      <path
         style="fill:none;stroke:context-stroke;stroke-width:1;stroke-linecap:butt"
         d="M 3,-3 0,0 3,3"
         transform="rotate(180,0.125,0)"
         sodipodi:nodetypes="ccc"
         id="path8" />
    </marker>
    <marker
       style="overflow:visible"
       id="marker10"
       refX="0"
       refY="0"
       orient="auto-start-reverse"
       inkscape:stockid="Wide arrow"
       markerWidth="1"
       markerHeight="1"
       viewBox="0 0 1 1"
       inkscape:isstock="true"
       inkscape:collect="always"
       preserveAspectRatio="xMidYMid">
      <path
         style="fill:none;stroke:context-stroke;stroke-width:1;stroke-linecap:butt"
         d="M 3,-3 0,0 3,3"
         transform="rotate(180,0.125,0)"
         sodipodi:nodetypes="ccc"
         id="path10" />
    </marker>
    <marker
       style="overflow:visible"
       id="ArrowWide"
       refX="0"
       refY="0"
       orient="auto-start-reverse"
       inkscape:stockid="Wide arrow"
       markerWidth="1"
       markerHeight="1"
       viewBox="0 0 1 1"
       inkscape:isstock="true"
       inkscape:collect="always"
       preserveAspectRatio="xMidYMid">
      <path
         style="fill:none;stroke:context-stroke;stroke-width:1;stroke-linecap:butt"
         d="M 3,-3 0,0 3,3"
         transform="rotate(180,0.125,0)"
         sodipodi:nodetypes="ccc"
         id="path2" />
    </marker>
    <marker
       style="overflow:visible"
       id="ArrowWide-3"
       refX="0"
       refY="0"
       orient="auto-start-reverse"
       inkscape:stockid="Wide arrow"
       markerWidth="1"
       markerHeight="1"
       viewBox="0 0 1 1"
       inkscape:isstock="true"
       inkscape:collect="always"
       preserveAspectRatio="xMidYMid">
      <path
         style="fill:none;stroke:context-stroke;stroke-width:1;stroke-linecap:butt"
         d="M 3,-3 0,0 3,3"
         transform="rotate(180,0.125,0)"
         sodipodi:nodetypes="ccc"
         id="path2-8" />
    </marker>
  </defs>
  <path
     style="fill:#000000;fill-opacity:0;stroke:#000000;stroke-width:3;stroke-dasharray:none;marker-end:url(#marker10)"
     d="M -98.155611,191.14514 C -44.352939,138.28954 17.453084,120.35766 96.433575,177.36891"
     id="path9"
     sodipodi:nodetypes="cc"
     transform="translate(514.02544,0.86101415)"
     inkscape:label="center_arrow" />
  <g
     inkscape:label="Layer 1"
     inkscape:groupmode="layer"
     id="layer1">
    <g
       id="g4"
       inkscape:label="left_coordinate"
       transform="translate(-16.359269)">
      <path
         style="fill:#000000;fill-opacity:1;stroke:#000000;stroke-width:2;stroke-dasharray:none;marker-start:url(#ArrowWide)"
         d="m 138.10522,48.416196 2.38112,410.347114"
         id="path1"
         inkscape:label="y-axis" />
      <path
         style="fill:#000000;fill-opacity:1;stroke:#000000;stroke-width:1.9073;stroke-dasharray:none;marker-start:url(#ArrowWide-3)"
         d="m 459.4964,428.3454 -363.751202,1.352"
         id="path1-5"
         inkscape:label="x-axis" />
      <g
         inkscape:label="origin"
         transform="matrix(4.4669517,0,0,4.4669517,117.63112,437.00201)"
         id="g3">
        <g
           fill="#000000"
           fill-opacity="1"
           id="g2"
           transform="matrix(0.352778,0,0,0.352778,-1.03382,-0.56268)">
          <g
             id="use1"
             transform="translate(1.993,17.969999)">
            <path
               d="m 10.40625,-7.953125 c 0,-1.515625 -0.01563,-4.09375 -1.0625,-6.078125 -0.921875,-1.734375 -2.375,-2.34375 -3.671875,-2.34375 -1.1875,0 -2.703125,0.546875 -3.640625,2.328125 -0.984375,1.859375 -1.09375,4.15625 -1.09375,6.09375 0,1.40625 0.03125,3.5625 0.796875,5.453125 1.0625,2.546875 2.96875,2.890625 3.9375,2.890625 1.140625,0 2.875,-0.46875 3.890625,-2.8125 0.75,-1.71875 0.84375,-3.71875 0.84375,-5.53125 z M 5.671875,0 C 4.09375,0 3.140625,-1.359375 2.796875,-3.25 2.53125,-4.703125 2.53125,-6.84375 2.53125,-8.234375 c 0,-1.90625 0,-3.484375 0.3125,-5 0.484375,-2.109375 1.859375,-2.75 2.828125,-2.75 1.015625,0 2.328125,0.671875 2.796875,2.703125 0.328125,1.40625 0.359375,3.078125 0.359375,5.046875 0,1.625 0,3.59375 -0.296875,5.0625 C 8,-0.46875 6.546875,0 5.671875,0 Z m 0,0"
               id="path3" />
          </g>
        </g>
      </g>
    </g>
    <g
       id="g9"
       inkscape:label="right_coordinate"
       transform="translate(514.02544,0.86101414)">
      <path
         style="fill:#000000;fill-opacity:1;stroke:#000000;stroke-width:2;stroke-dasharray:none;marker-start:url(#ArrowWide)"
         d="m 138.10522,48.416196 2.38112,410.347114"
         id="path4"
         inkscape:label="y-axis" />
      <path
         style="fill:#000000;fill-opacity:1;stroke:#000000;stroke-width:1.9073;stroke-dasharray:none;marker-start:url(#ArrowWide-3)"
         d="m 459.4964,428.3454 -363.751202,1.352"
         id="path5"
         inkscape:label="x-axis" />
      <g
         inkscape:label="origin"
         transform="matrix(4.4669517,0,0,4.4669517,117.63112,437.00201)"
         id="g8">
        <g
           fill="#000000"
           fill-opacity="1"
           id="g7"
           transform="matrix(0.352778,0,0,0.352778,-1.03382,-0.56268)">
          <g
             id="g6"
             transform="translate(1.993,17.969999)">
            <path
               d="m 10.40625,-7.953125 c 0,-1.515625 -0.01563,-4.09375 -1.0625,-6.078125 -0.921875,-1.734375 -2.375,-2.34375 -3.671875,-2.34375 -1.1875,0 -2.703125,0.546875 -3.640625,2.328125 -0.984375,1.859375 -1.09375,4.15625 -1.09375,6.09375 0,1.40625 0.03125,3.5625 0.796875,5.453125 1.0625,2.546875 2.96875,2.890625 3.9375,2.890625 1.140625,0 2.875,-0.46875 3.890625,-2.8125 0.75,-1.71875 0.84375,-3.71875 0.84375,-5.53125 z M 5.671875,0 C 4.09375,0 3.140625,-1.359375 2.796875,-3.25 2.53125,-4.703125 2.53125,-6.84375 2.53125,-8.234375 c 0,-1.90625 0,-3.484375 0.3125,-5 0.484375,-2.109375 1.859375,-2.75 2.828125,-2.75 1.015625,0 2.328125,0.671875 2.796875,2.703125 0.328125,1.40625 0.359375,3.078125 0.359375,5.046875 0,1.625 0,3.59375 -0.296875,5.0625 C 8,-0.46875 6.546875,0 5.671875,0 Z m 0,0"
               id="path6" />
          </g>
        </g>
      </g>
    </g>
  </g>
  <path
     style="fill:#000000;stroke:#000000;stroke-width:3;marker-end:url(#marker8)"
     d="M 124.84705,429.64604 222.14164,281.55161"
     id="path7" />
  <g
     inkscape:label=""
     transform="matrix(5.5807268,0,0,5.5807268,356.53381,100.30808)"
     id="g13">
    <g
       fill="#000000"
       fill-opacity="1"
       id="g12"
       transform="matrix(0.352778,0,0,0.352778,-2.7183238,-0.614936)">
      <g
         id="g11"
         transform="translate(1.993,12.665)">
        <path
           d="M 8.375,-3.140625 C 8.28125,-2.75 8.234375,-2.65625 7.90625,-2.28125 6.890625,-0.96875 5.84375,-0.5 5.078125,-0.5 4.265625,-0.5 3.5,-1.140625 3.5,-2.84375 3.5,-4.15625 4.234375,-6.9375 4.78125,-8.046875 5.5,-9.4375 6.609375,-10.4375 7.65625,-10.4375 c 1.640625,0 1.953125,2.03125 1.953125,2.1875 l -0.0625,0.34375 z m 1.53125,-6.15625 c -0.3125,-0.71875 -1.015625,-1.625 -2.25,-1.625 -2.703125,0 -5.765625,3.390625 -5.765625,7.078125 C 1.890625,-1.265625 3.4375,0 5.03125,0 6.34375,0 7.515625,-1.046875 7.953125,-1.53125 L 7.40625,0.6875 C 7.0625,2.0625 6.90625,2.671875 6.015625,3.546875 5,4.5625 4.0625,4.5625 3.515625,4.5625 2.78125,4.5625 2.15625,4.515625 1.53125,4.3125 c 0.796875,-0.21875 1,-0.921875 1,-1.1875 0,-0.40625 -0.296875,-0.796875 -0.84375,-0.796875 -0.59375,0 -1.234375,0.5 -1.234375,1.3125 C 0.453125,4.65625 1.46875,5.0625 3.5625,5.0625 6.765625,5.0625 8.421875,3 8.75,1.65625 L 11.5,-9.4375 c 0.07813,-0.296875 0.07813,-0.34375 0.07813,-0.40625 0,-0.34375 -0.28125,-0.609375 -0.65625,-0.609375 -0.59375,0 -0.9375,0.484375 -1.015625,1.15625 z m 0,0"
           id="path11" />
      </g>
    </g>
  </g>
  <text
     xml:space="preserve"
     style="font-weight:100;font-size:25.4px;font-family:'Hiragino Sans';-inkscape-font-specification:'Hiragino Sans Thin';fill:#000000;stroke:#000000;stroke-width:2;stroke-dasharray:none"
     x="375.40216"
     y="125.70807"
     id="text13"><tspan
       sodipodi:role="line"
       id="tspan13"
       style="stroke-width:2;stroke-dasharray:none"
       x="375.40216"
       y="125.70807">: vector-valued function</tspan></text>
  <path
     style="fill:#000000;stroke:#000000;stroke-width:3;stroke-dasharray:none;marker-end:url(#marker14)"
     d="M 123.98604,428.78504 362.48695,282.41262"
     id="path13" />
  <g
     inkscape:label=""
     transform="matrix(7.077929,0,0,7.077929,200.21336,239.99945)"
     id="g16">
    <g
       fill="#000000"
       fill-opacity="1"
       id="g15"
       transform="matrix(0.352778,0,0,0.352778,-0.945621,-0.614583)">
      <g
         id="g14"
         transform="translate(1.993,12.664)">
        <path
           d="m 11.75,-10.109375 c -0.796875,0.140625 -1.09375,0.734375 -1.09375,1.21875 0,0.59375 0.46875,0.78125 0.8125,0.78125 0.75,0 1.265625,-0.640625 1.265625,-1.3125 0,-1.03125 -1.1875,-1.5 -2.234375,-1.5 -1.5,0 -2.34375,1.484375 -2.5625,1.953125 -0.578125,-1.859375 -2.109375,-1.953125 -2.5625,-1.953125 -2.53125,0 -3.859375,3.234375 -3.859375,3.78125 0,0.109375 0.09375,0.234375 0.265625,0.234375 0.203125,0 0.25,-0.15625 0.296875,-0.25 0.84375,-2.75 2.5,-3.28125 3.21875,-3.28125 1.125,0 1.34375,1.046875 1.34375,1.640625 C 6.640625,-8.25 6.5,-7.6875 6.1875,-6.5 l -0.828125,3.40625 c -0.375,1.484375 -1.09375,2.84375 -2.40625,2.84375 -0.125,0 -0.75,0 -1.265625,-0.3125 0.890625,-0.1875 1.09375,-0.921875 1.09375,-1.21875 0,-0.5 -0.375,-0.796875 -0.84375,-0.796875 -0.59375,0 -1.25,0.515625 -1.25,1.3125 0,1.046875 1.171875,1.515625 2.234375,1.515625 1.1875,0 2.03125,-0.9375 2.5625,-1.953125 C 5.875,-0.25 7.109375,0.25 8.03125,0.25 c 2.53125,0 3.859375,-3.25 3.859375,-3.796875 0,-0.125 -0.09375,-0.21875 -0.25,-0.21875 -0.21875,0 -0.234375,0.125 -0.3125,0.328125 -0.671875,2.171875 -2.109375,3.1875 -3.21875,3.1875 -0.875,0 -1.34375,-0.640625 -1.34375,-1.65625 0,-0.546875 0.09375,-0.9375 0.5,-2.578125 L 8.125,-7.859375 C 8.5,-9.34375 9.34375,-10.4375 10.484375,-10.4375 c 0.04687,0 0.734375,0 1.265625,0.328125 z m 0,0"
           id="path14-0" />
      </g>
    </g>
  </g>
  <g
     inkscape:label=""
     transform="matrix(5.5807267,0,0,5.5807267,378.86006,271.6499)"
     id="g19">
    <g
       fill="#000000"
       fill-opacity="1"
       id="g18"
       transform="matrix(0.352778,0,0,0.352778,-0.940109,-0.614936)">
      <g
         id="g17"
         transform="translate(1.993,12.665)">
        <path
           d="M 6.515625,2.78125 C 5.84375,3.71875 4.875,4.5625 3.671875,4.5625 3.375,4.5625 2.1875,4.515625 1.8125,3.375 1.890625,3.390625 2,3.390625 2.0625,3.390625 2.796875,3.390625 3.296875,2.75 3.296875,2.1875 3.296875,1.609375 2.828125,1.40625 2.453125,1.40625 2.0625,1.40625 1.1875,1.703125 1.1875,2.921875 1.1875,4.1875 2.25,5.0625 3.671875,5.0625 c 2.46875,0 4.984375,-2.28125 5.671875,-5.03125 l 2.421875,-9.671875 c 0.03125,-0.125 0.07813,-0.265625 0.07813,-0.421875 0,-0.375 -0.296875,-0.625 -0.671875,-0.625 -0.21875,0 -0.734375,0.109375 -0.9375,0.84375 l -1.82813,7.296875 c -0.125,0.4375 -0.125,0.484375 -0.328125,0.765625 -0.5,0.6875 -1.3125,1.53125 -2.5,1.53125 C 4.1875,-0.25 4.0625,-1.609375 4.0625,-2.28125 c 0,-1.40625 0.671875,-3.3125 1.34375,-5.109375 0.265625,-0.71875 0.421875,-1.0625 0.421875,-1.5625 0,-1.03125 -0.75,-1.96875 -1.96875,-1.96875 -2.265625,0 -3.1875,3.59375 -3.1875,3.78125 0,0.109375 0.09375,0.234375 0.265625,0.234375 0.234375,0 0.25,-0.109375 0.34375,-0.453125 0.609375,-2.078125 1.546875,-3.078125 2.515625,-3.078125 0.21875,0 0.640625,0 0.640625,0.828125 0,0.640625 -0.28125,1.359375 -0.640625,2.296875 -1.21875,3.25 -1.21875,4.0625 -1.21875,4.65625 0,2.359375 1.6875,2.90625 2.921875,2.90625 0.71875,0 1.609375,-0.21875 2.484375,-1.140625 L 8,-0.875 C 7.625,0.59375 7.390625,1.5625 6.515625,2.78125 Z m 0,0"
           id="path15" />
      </g>
    </g>
  </g>
  <path
     style="fill:#000000;stroke:#000000;stroke-width:3;stroke-dasharray:none;marker-end:url(#marker20)"
     d="m 655.23176,429.64605 102.46069,-121.403"
     id="path19" />
  <g
     inkscape:label=""
     transform="matrix(4.5593389,0,0,4.5593389,690.96382,262.13825)"
     id="g25">
    <g
       fill="#000000"
       fill-opacity="1"
       id="g5"
       transform="matrix(0.352778,0,0,0.352778,-0.862939,-0.704673)">
      <g
         id="use4"
         transform="translate(1.993,20.559999)">
        <path
           d="M 8.375,-3.140625 C 8.28125,-2.75 8.234375,-2.65625 7.90625,-2.28125 6.890625,-0.96875 5.84375,-0.5 5.078125,-0.5 4.265625,-0.5 3.5,-1.140625 3.5,-2.84375 3.5,-4.15625 4.234375,-6.9375 4.78125,-8.046875 5.5,-9.4375 6.609375,-10.4375 7.65625,-10.4375 c 1.640625,0 1.953125,2.03125 1.953125,2.1875 l -0.0625,0.34375 z m 1.53125,-6.15625 c -0.3125,-0.71875 -1.015625,-1.625 -2.25,-1.625 -2.703125,0 -5.765625,3.390625 -5.765625,7.078125 C 1.890625,-1.265625 3.4375,0 5.03125,0 6.34375,0 7.515625,-1.046875 7.953125,-1.53125 L 7.40625,0.6875 C 7.0625,2.0625 6.90625,2.671875 6.015625,3.546875 5,4.5625 4.0625,4.5625 3.515625,4.5625 2.78125,4.5625 2.15625,4.515625 1.53125,4.3125 c 0.796875,-0.21875 1,-0.921875 1,-1.1875 0,-0.40625 -0.296875,-0.796875 -0.84375,-0.796875 -0.59375,0 -1.234375,0.5 -1.234375,1.3125 C 0.453125,4.65625 1.46875,5.0625 3.5625,5.0625 6.765625,5.0625 8.421875,3 8.75,1.65625 L 11.5,-9.4375 c 0.07813,-0.296875 0.07813,-0.34375 0.07813,-0.40625 0,-0.34375 -0.28125,-0.609375 -0.65625,-0.609375 -0.59375,0 -0.9375,0.484375 -1.015625,1.15625 z m 0,0"
           id="path21" />
      </g>
    </g>
    <g
       fill="#000000"
       fill-opacity="1"
       id="g22"
       transform="matrix(0.352778,0,0,0.352778,-0.862939,-0.704673)">
      <g
         id="use5"
         transform="translate(14.504,20.559999)">
        <path
           d="m 7.578125,6.046875 c 0,-0.03125 0,-0.078125 -0.0625,-0.15625 -1.140625,-1.15625 -4.1875,-4.328125 -4.1875,-12.0625 0,-7.734375 2.984375,-10.875 4.203125,-12.109375 0,-0.03125 0.046875,-0.07813 0.046875,-0.15625 0,-0.07813 -0.0625,-0.125 -0.171875,-0.125 -0.265625,0 -2.375,1.828125 -3.59375,4.5625 -1.234375,2.75 -1.578125,5.421875 -1.578125,7.8125 0,1.78125 0.171875,4.796875 1.65625,8 1.1875,2.578125 3.21875,4.375 3.515625,4.375 0.125,0 0.171875,-0.046875 0.171875,-0.140625 z m 0,0"
           id="path22" />
      </g>
    </g>
    <g
       fill="#000000"
       fill-opacity="1"
       id="g23"
       transform="matrix(0.352778,0,0,0.352778,-0.862939,-0.704673)">
      <g
         id="use6"
         transform="translate(23.281,20.559999)">
        <path
           d="m 11.75,-10.109375 c -0.796875,0.140625 -1.09375,0.734375 -1.09375,1.21875 0,0.59375 0.46875,0.78125 0.8125,0.78125 0.75,0 1.265625,-0.640625 1.265625,-1.3125 0,-1.03125 -1.1875,-1.5 -2.234375,-1.5 -1.5,0 -2.34375,1.484375 -2.5625,1.953125 -0.578125,-1.859375 -2.109375,-1.953125 -2.5625,-1.953125 -2.53125,0 -3.859375,3.234375 -3.859375,3.78125 0,0.109375 0.09375,0.234375 0.265625,0.234375 0.203125,0 0.25,-0.15625 0.296875,-0.25 0.84375,-2.75 2.5,-3.28125 3.21875,-3.28125 1.125,0 1.34375,1.046875 1.34375,1.640625 C 6.640625,-8.25 6.5,-7.6875 6.1875,-6.5 l -0.828125,3.40625 c -0.375,1.484375 -1.09375,2.84375 -2.40625,2.84375 -0.125,0 -0.75,0 -1.265625,-0.3125 0.890625,-0.1875 1.09375,-0.921875 1.09375,-1.21875 0,-0.5 -0.375,-0.796875 -0.84375,-0.796875 -0.59375,0 -1.25,0.515625 -1.25,1.3125 0,1.046875 1.171875,1.515625 2.234375,1.515625 1.1875,0 2.03125,-0.9375 2.5625,-1.953125 C 5.875,-0.25 7.109375,0.25 8.03125,0.25 c 2.53125,0 3.859375,-3.25 3.859375,-3.796875 0,-0.125 -0.09375,-0.21875 -0.25,-0.21875 -0.21875,0 -0.234375,0.125 -0.3125,0.328125 -0.671875,2.171875 -2.109375,3.1875 -3.21875,3.1875 -0.875,0 -1.34375,-0.640625 -1.34375,-1.65625 0,-0.546875 0.09375,-0.9375 0.5,-2.578125 L 8.125,-7.859375 C 8.5,-9.34375 9.34375,-10.4375 10.484375,-10.4375 c 0.04687,0 0.734375,0 1.265625,0.328125 z m 0,0"
           id="path23" />
      </g>
    </g>
    <g
       fill="#000000"
       fill-opacity="1"
       id="g24"
       transform="matrix(0.352778,0,0,0.352778,-0.862939,-0.704673)">
      <g
         id="use7"
         transform="translate(37.073002,20.559999)">
        <path
           d="m 6.515625,-6.171875 c 0,-1.78125 -0.171875,-4.8125 -1.65625,-8 C 3.671875,-16.75 1.640625,-18.5625 1.34375,-18.5625 c -0.078125,0 -0.171875,0.03125 -0.171875,0.15625 0,0.04687 0.015625,0.0625 0.046875,0.125 1.1875,1.234375 4.203125,4.375 4.203125,12.09375 0,7.71875 -3,10.875 -4.203125,12.109375 C 1.1875,5.96875 1.171875,6 1.171875,6.046875 c 0,0.125 0.09375,0.140625 0.171875,0.140625 0.265625,0 2.375,-1.828125 3.59375,-4.546875 1.234375,-2.75 1.578125,-5.4375 1.578125,-7.8125 z m 0,0"
           id="path24" />
      </g>
    </g>
  </g>
  <path
     style="fill:#000000;stroke:#000000;stroke-width:3;stroke-dasharray:none;marker-end:url(#marker26)"
     d="M 655.23176,429.64605 882.53948,236.77888"
     id="path25" />
  <g
     inkscape:label=""
     transform="matrix(5.1414229,0,0,5.1414229,888.99707,184.68885)"
     id="g35">
    <g
       fill="#000000"
       fill-opacity="1"
       id="g28"
       transform="matrix(0.352778,0,0,0.352778,-0.862939,-0.704673)">
      <g
         id="g27"
         transform="translate(1.993,20.559999)">
        <path
           d="M 8.375,-3.140625 C 8.28125,-2.75 8.234375,-2.65625 7.90625,-2.28125 6.890625,-0.96875 5.84375,-0.5 5.078125,-0.5 4.265625,-0.5 3.5,-1.140625 3.5,-2.84375 3.5,-4.15625 4.234375,-6.9375 4.78125,-8.046875 5.5,-9.4375 6.609375,-10.4375 7.65625,-10.4375 c 1.640625,0 1.953125,2.03125 1.953125,2.1875 l -0.0625,0.34375 z m 1.53125,-6.15625 c -0.3125,-0.71875 -1.015625,-1.625 -2.25,-1.625 -2.703125,0 -5.765625,3.390625 -5.765625,7.078125 C 1.890625,-1.265625 3.4375,0 5.03125,0 6.34375,0 7.515625,-1.046875 7.953125,-1.53125 L 7.40625,0.6875 C 7.0625,2.0625 6.90625,2.671875 6.015625,3.546875 5,4.5625 4.0625,4.5625 3.515625,4.5625 2.78125,4.5625 2.15625,4.515625 1.53125,4.3125 c 0.796875,-0.21875 1,-0.921875 1,-1.1875 0,-0.40625 -0.296875,-0.796875 -0.84375,-0.796875 -0.59375,0 -1.234375,0.5 -1.234375,1.3125 C 0.453125,4.65625 1.46875,5.0625 3.5625,5.0625 6.765625,5.0625 8.421875,3 8.75,1.65625 L 11.5,-9.4375 c 0.07813,-0.296875 0.07813,-0.34375 0.07813,-0.40625 0,-0.34375 -0.28125,-0.609375 -0.65625,-0.609375 -0.59375,0 -0.9375,0.484375 -1.015625,1.15625 z m 0,0"
           id="path27" />
      </g>
    </g>
    <g
       fill="#000000"
       fill-opacity="1"
       id="g30"
       transform="matrix(0.352778,0,0,0.352778,-0.862939,-0.704673)">
      <g
         id="g29"
         transform="translate(14.504,20.559999)">
        <path
           d="m 7.578125,6.046875 c 0,-0.03125 0,-0.078125 -0.0625,-0.15625 -1.140625,-1.15625 -4.1875,-4.328125 -4.1875,-12.0625 0,-7.734375 2.984375,-10.875 4.203125,-12.109375 0,-0.03125 0.046875,-0.07813 0.046875,-0.15625 0,-0.07813 -0.0625,-0.125 -0.171875,-0.125 -0.265625,0 -2.375,1.828125 -3.59375,4.5625 -1.234375,2.75 -1.578125,5.421875 -1.578125,7.8125 0,1.78125 0.171875,4.796875 1.65625,8 1.1875,2.578125 3.21875,4.375 3.515625,4.375 0.125,0 0.171875,-0.046875 0.171875,-0.140625 z m 0,0"
           id="path28" />
      </g>
    </g>
    <g
       fill="#000000"
       fill-opacity="1"
       id="g32"
       transform="matrix(0.352778,0,0,0.352778,-0.862939,-0.704673)">
      <g
         id="g31"
         transform="translate(23.281,20.559999)">
        <path
           d="M 6.515625,2.78125 C 5.84375,3.71875 4.875,4.5625 3.671875,4.5625 3.375,4.5625 2.1875,4.515625 1.8125,3.375 1.890625,3.390625 2,3.390625 2.0625,3.390625 2.796875,3.390625 3.296875,2.75 3.296875,2.1875 3.296875,1.609375 2.828125,1.40625 2.453125,1.40625 2.0625,1.40625 1.1875,1.703125 1.1875,2.921875 1.1875,4.1875 2.25,5.0625 3.671875,5.0625 c 2.46875,0 4.984375,-2.28125 5.671875,-5.03125 l 2.421875,-9.671875 c 0.03125,-0.125 0.07813,-0.265625 0.07813,-0.421875 0,-0.375 -0.296875,-0.625 -0.671875,-0.625 -0.21875,0 -0.734375,0.109375 -0.9375,0.84375 l -1.82813,7.296875 c -0.125,0.4375 -0.125,0.484375 -0.328125,0.765625 -0.5,0.6875 -1.3125,1.53125 -2.5,1.53125 C 4.1875,-0.25 4.0625,-1.609375 4.0625,-2.28125 c 0,-1.40625 0.671875,-3.3125 1.34375,-5.109375 0.265625,-0.71875 0.421875,-1.0625 0.421875,-1.5625 0,-1.03125 -0.75,-1.96875 -1.96875,-1.96875 -2.265625,0 -3.1875,3.59375 -3.1875,3.78125 0,0.109375 0.09375,0.234375 0.265625,0.234375 0.234375,0 0.25,-0.109375 0.34375,-0.453125 0.609375,-2.078125 1.546875,-3.078125 2.515625,-3.078125 0.21875,0 0.640625,0 0.640625,0.828125 0,0.640625 -0.28125,1.359375 -0.640625,2.296875 -1.21875,3.25 -1.21875,4.0625 -1.21875,4.65625 0,2.359375 1.6875,2.90625 2.921875,2.90625 0.71875,0 1.609375,-0.21875 2.484375,-1.140625 L 8,-0.875 C 7.625,0.59375 7.390625,1.5625 6.515625,2.78125 Z m 0,0"
           id="path30" />
      </g>
    </g>
    <g
       fill="#000000"
       fill-opacity="1"
       id="g34"
       transform="matrix(0.352778,0,0,0.352778,-0.862939,-0.704673)">
      <g
         id="g33"
         transform="translate(36.005001,20.559999)">
        <path
           d="m 6.515625,-6.171875 c 0,-1.78125 -0.171875,-4.8125 -1.65625,-8 C 3.671875,-16.75 1.640625,-18.5625 1.34375,-18.5625 c -0.078125,0 -0.171875,0.03125 -0.171875,0.15625 0,0.04687 0.015625,0.0625 0.046875,0.125 1.1875,1.234375 4.203125,4.375 4.203125,12.09375 0,7.71875 -3,10.875 -4.203125,12.109375 C 1.1875,5.96875 1.171875,6 1.171875,6.046875 c 0,0.125 0.09375,0.140625 0.171875,0.140625 0.265625,0 2.375,-1.828125 3.59375,-4.546875 1.234375,-2.75 1.578125,-5.4375 1.578125,-7.8125 z m 0,0"
           id="path32" />
      </g>
    </g>
  </g>
  <g
     id="g36"
     inkscape:label="cone">
    <path
       style="fill:#000000;stroke:#ff0000;stroke-width:3;stroke-dasharray:none;fill-opacity:0;stroke-opacity:1"
       d="m 757.69244,49.077805 0.86101,257.443225 h 211.80946"
       id="path35"
       inkscape:label="line" />
    <path
       style="fill:#e40000;stroke:#ff0000;stroke-width:3;stroke-dasharray:none;fill-opacity:0.29602888;stroke-opacity:0"
       d="m 757.69244,49.077805 0.86101,257.443225 H 970.36291 L 969.50192,46.494763 Z"
       id="path36"
       inkscape:label="fill" />
  </g>
  <g
     inkscape:label=""
     transform="matrix(4.8031982,0,0,4.8031982,717.25546,40.898106)"
     id="g39"
     style="stroke:#ff0000;stroke-opacity:0.99639;fill:#ff0000;fill-opacity:1">
    <g
       fill="#000000"
       fill-opacity="1"
       id="g38"
       transform="matrix(0.352778,0,0,0.352778,-1.13855,-0.521009)"
       style="stroke:#ff0000;stroke-opacity:0.99639;fill:#ff0000;fill-opacity:1">
      <g
         id="g37"
         transform="translate(1.993,18.93)"
         style="stroke:#ff0000;stroke-opacity:0.99639;fill:#ff0000;fill-opacity:1">
        <path
           d="m 18.515625,-17.21875 c 0,-0.234375 -0.171875,-0.234375 -0.234375,-0.234375 -0.04687,0 -0.140625,0 -0.34375,0.25 l -1.703125,2.09375 c -0.875,-1.5 -2.234375,-2.34375 -4.09375,-2.34375 -5.34375,0 -10.90625,5.4375 -10.90625,11.265625 0,4.125 2.90625,6.703125 6.515625,6.703125 1.984375,0 3.71875,-0.84375 5.15625,-2.046875 2.15625,-1.8125 2.8125,-4.21875 2.8125,-4.421875 0,-0.21875 -0.203125,-0.21875 -0.28125,-0.21875 -0.21875,0 -0.25,0.15625 -0.296875,0.25 C 14,-2.0625 10.65625,-0.203125 8.171875,-0.203125 c -2.625,0 -4.90625,-1.6875 -4.90625,-5.203125 0,-0.78125 0.25,-5.09375 3.046875,-8.34375 1.375,-1.59375 3.703125,-2.984375 6.046875,-2.984375 2.734375,0 3.953125,2.265625 3.953125,4.796875 0,0.640625 -0.07813,1.1875 -0.07813,1.28125 0,0.21875 0.25,0.21875 0.3125,0.21875 0.28125,0 0.296875,-0.01563 0.40625,-0.46875 z m 0,0"
           id="path37"
           style="stroke:#ff0000;stroke-opacity:0.99639;fill:#ff0000;fill-opacity:1" />
      </g>
    </g>
  </g>
</svg>
