<?xml version="1.0" encoding="UTF-8" standalone="no"?>
<!-- Created with Inkscape (http://www.inkscape.org/) -->

<svg
   width="512mm"
   height="512mm"
   viewBox="0 0 512 512"
   version="1.1"
   id="svg1"
   inkscape:version="1.3.2 (091e20e, 2023-11-25)"
   sodipodi:docname="drawing2.svg"
   xmlns:inkscape="http://www.inkscape.org/namespaces/inkscape"
   xmlns:sodipodi="http://sodipodi.sourceforge.net/DTD/sodipodi-0.dtd"
   xmlns="http://www.w3.org/2000/svg"
   xmlns:svg="http://www.w3.org/2000/svg">
  <sodipodi:namedview
     id="namedview1"
     pagecolor="#ffffff"
     bordercolor="#000000"
     borderopacity="0.25"
     inkscape:showpageshadow="2"
     inkscape:pageopacity="0.0"
     inkscape:pagecheckerboard="0"
     inkscape:deskcolor="#d1d1d1"
     inkscape:document-units="mm"
     inkscape:zoom="0.48040178"
     inkscape:cx="648.41558"
     inkscape:cy="649.45638"
     inkscape:window-width="1712"
     inkscape:window-height="1019"
     inkscape:window-x="0"
     inkscape:window-y="44"
     inkscape:window-maximized="0"
     inkscape:current-layer="layer1" />
  <defs
     id="defs1">
    <marker
       style="overflow:visible"
       id="ArrowWide"
       refX="0"
       refY="0"
       orient="auto-start-reverse"
       inkscape:stockid="Wide arrow"
       markerWidth="1"
       markerHeight="1"
       viewBox="0 0 1 1"
       inkscape:isstock="true"
       inkscape:collect="always"
       preserveAspectRatio="xMidYMid">
      <path
         style="fill:none;stroke:context-stroke;stroke-width:1;stroke-linecap:butt"
         d="M 3,-3 0,0 3,3"
         transform="rotate(180,0.125,0)"
         sodipodi:nodetypes="ccc"
         id="path58" />
    </marker>
  </defs>
  <g
     inkscape:label="Layer 1"
     inkscape:groupmode="layer"
     id="layer1">
    <path
       style="fill:#000000;fill-opacity:0;stroke:#000000;stroke-width:1;stroke-dasharray:none;stroke-opacity:1"
       d="m 64.073974,415.56548 c 0,0 135.470686,99.77233 120.825206,-51.25916 -14.64548,-151.03152 158.35425,-54.92057 158.35425,-54.92057 0,0 219.68219,90.61892 59.49727,67.73535 C 242.56576,354.23755 185.81452,208.69809 185.81452,208.69809 c 0,0 -51.25917,-94.28028 86.04221,8.23808 137.30136,102.51835 53.08986,-25.62959 53.08986,-25.62959 0,0 -36.6137,-33.86767 -10.98413,-26.54493 25.62961,7.32274 75.05809,-25.62959 75.05809,-25.62959 0,0 86.04221,-81.465483 82.38082,-86.95754"
       id="path1" />
    <path
       style="fill:#0000ff;fill-opacity:0.495495;stroke:#0000ff;stroke-width:1;stroke-dasharray:none;stroke-opacity:1"
       d="M 146.8492,15.294078 62.794887,414.30317 337.20792,78.290485"
       id="path55"
       sodipodi:nodetypes="ccc" />
    <path
       style="fill:#0000ff;fill-opacity:0.495495;stroke:#ff0000;stroke-width:3;stroke-dasharray:none;stroke-opacity:1"
       d="M 63.009001,415.92123 475.58097,51.564845"
       id="path56" />
    <g
       inkscape:label=""
       transform="matrix(3.9156147,0,0,3.9156147,192.89865,427.16531)"
       id="g56"
       style="stroke:none;stroke-opacity:1">
      <g
         fill="#000000"
         fill-opacity="1"
         id="g6"
         transform="matrix(0.352778,0,0,0.352778,-1.14957,-0.704673)"
         style="stroke:none;stroke-opacity:1">
        <g
           id="use5"
           transform="translate(1.993,20.559999)"
           style="stroke:none;stroke-opacity:1">
          <path
             d="m 11.046875,-9.96875 c 0.5,0 0.703125,0 0.703125,-0.46875 0,-0.25 -0.203125,-0.25 -0.640625,-0.25 H 9.09375 c 0.46875,-2.546875 0.8125,-4.3125 1.015625,-5.09375 0.15625,-0.59375 0.671875,-1.171875 1.3125,-1.171875 0.515625,0 1.046875,0.21875 1.296875,0.453125 -0.96875,0.09375 -1.265625,0.8125 -1.265625,1.234375 0,0.5 0.375,0.796875 0.84375,0.796875 0.484375,0 1.234375,-0.421875 1.234375,-1.359375 0,-1.046875 -1.046875,-1.625 -2.125,-1.625 -1.078125,0 -2.109375,0.796875 -2.609375,1.765625 -0.453125,0.875 -0.6875,1.765625 -1.265625,5 H 5.875 c -0.46875,0 -0.71875,0 -0.71875,0.453125 0,0.265625 0.140625,0.265625 0.640625,0.265625 h 1.59375 C 6.9375,-7.65625 5.921875,-2.0625 5.359375,0.59375 4.9375,2.75 4.5625,4.5625 3.328125,4.5625 c -0.078125,0 -0.796875,0 -1.25,-0.46875 C 3.34375,3.984375 3.34375,2.90625 3.34375,2.875 3.34375,2.375 2.96875,2.078125 2.5,2.078125 2,2.078125 1.265625,2.5 1.265625,3.4375 c 0,1.078125 1.09375,1.625 2.0625,1.625 2.515625,0 3.5625,-4.546875 3.828125,-5.78125 0.453125,-1.90625 1.671875,-8.5 1.796875,-9.25 z m 0,0"
             id="path10"
             style="stroke:none;stroke-opacity:1" />
        </g>
      </g>
      <g
         fill="#000000"
         fill-opacity="1"
         id="g7"
         transform="matrix(0.352778,0,0,0.352778,-1.14957,-0.704673)"
         style="stroke:none;stroke-opacity:1">
        <g
           id="use6"
           transform="translate(16.601999,20.559999)"
           style="stroke:none;stroke-opacity:1">
          <path
             d="m 7.578125,6.046875 c 0,-0.03125 0,-0.078125 -0.0625,-0.15625 -1.140625,-1.15625 -4.1875,-4.328125 -4.1875,-12.0625 0,-7.734375 2.984375,-10.875 4.203125,-12.109375 0,-0.03125 0.046875,-0.07813 0.046875,-0.15625 0,-0.07813 -0.0625,-0.125 -0.171875,-0.125 -0.265625,0 -2.375,1.828125 -3.59375,4.5625 -1.234375,2.75 -1.578125,5.421875 -1.578125,7.8125 0,1.78125 0.171875,4.796875 1.65625,8 1.1875,2.578125 3.21875,4.375 3.515625,4.375 0.125,0 0.171875,-0.046875 0.171875,-0.140625 z m 0,0"
             id="path11"
             style="stroke:none;stroke-opacity:1" />
        </g>
      </g>
      <g
         fill="#000000"
         fill-opacity="1"
         id="g8"
         transform="matrix(0.352778,0,0,0.352778,-1.14957,-0.704673)"
         style="stroke:none;stroke-opacity:1">
        <g
           id="use7"
           transform="translate(25.379999,20.559999)"
           style="stroke:none;stroke-opacity:1">
          <path
             d="m 11.75,-10.109375 c -0.796875,0.140625 -1.09375,0.734375 -1.09375,1.21875 0,0.59375 0.46875,0.78125 0.8125,0.78125 0.75,0 1.265625,-0.640625 1.265625,-1.3125 0,-1.03125 -1.1875,-1.5 -2.234375,-1.5 -1.5,0 -2.34375,1.484375 -2.5625,1.953125 -0.578125,-1.859375 -2.109375,-1.953125 -2.5625,-1.953125 -2.53125,0 -3.859375,3.234375 -3.859375,3.78125 0,0.109375 0.09375,0.234375 0.265625,0.234375 0.203125,0 0.25,-0.15625 0.296875,-0.25 0.84375,-2.75 2.5,-3.28125 3.21875,-3.28125 1.125,0 1.34375,1.046875 1.34375,1.640625 C 6.640625,-8.25 6.5,-7.6875 6.1875,-6.5 l -0.828125,3.40625 c -0.375,1.484375 -1.09375,2.84375 -2.40625,2.84375 -0.125,0 -0.75,0 -1.265625,-0.3125 0.890625,-0.1875 1.09375,-0.921875 1.09375,-1.21875 0,-0.5 -0.375,-0.796875 -0.84375,-0.796875 -0.59375,0 -1.25,0.515625 -1.25,1.3125 0,1.046875 1.171875,1.515625 2.234375,1.515625 1.1875,0 2.03125,-0.9375 2.5625,-1.953125 C 5.875,-0.25 7.109375,0.25 8.03125,0.25 c 2.53125,0 3.859375,-3.25 3.859375,-3.796875 0,-0.125 -0.09375,-0.21875 -0.25,-0.21875 -0.21875,0 -0.234375,0.125 -0.3125,0.328125 -0.671875,2.171875 -2.109375,3.1875 -3.21875,3.1875 -0.875,0 -1.34375,-0.640625 -1.34375,-1.65625 0,-0.546875 0.09375,-0.9375 0.5,-2.578125 L 8.125,-7.859375 C 8.5,-9.34375 9.34375,-10.4375 10.484375,-10.4375 c 0.04687,0 0.734375,0 1.265625,0.328125 z m 0,0"
             id="path12"
             style="stroke:none;stroke-opacity:1" />
        </g>
      </g>
      <g
         fill="#000000"
         fill-opacity="1"
         id="g9"
         transform="matrix(0.352778,0,0,0.352778,-1.14957,-0.704673)"
         style="stroke:none;stroke-opacity:1">
        <g
           id="use8"
           transform="translate(39.172001,28)"
           style="stroke:none;stroke-opacity:1">
          <path
             d="m 6.59375,-15.828125 c 0,-0.53125 -0.03125,-0.546875 -0.375,-0.546875 -0.96875,1.15625 -2.421875,1.53125 -3.8125,1.578125 -0.078125,0 -0.203125,0 -0.21875,0.04687 -0.03125,0.0625 -0.03125,0.109375 -0.03125,0.625 0.765625,0 2.0625,-0.15625 3.046875,-0.75 v 13.0625 c 0,0.875 -0.046875,1.171875 -2.1875,1.171875 H 2.28125 V 0 c 1.1875,-0.03125 2.421875,-0.046875 3.609375,-0.046875 1.203125,0 2.4375,0.015625 3.625,0.046875 v -0.640625 h -0.75 c -2.125,0 -2.171875,-0.28125 -2.171875,-1.171875 z m 0,0"
             id="path13"
             style="stroke:none;stroke-opacity:1" />
        </g>
      </g>
      <g
         fill="#000000"
         fill-opacity="1"
         id="g10"
         transform="matrix(0.352778,0,0,0.352778,-1.14957,-0.704673)"
         style="stroke:none;stroke-opacity:1">
        <g
           id="use9"
           transform="translate(51.037998,20.559999)"
           style="stroke:none;stroke-opacity:1">
          <path
             d="m 6.515625,-6.171875 c 0,-1.78125 -0.171875,-4.8125 -1.65625,-8 C 3.671875,-16.75 1.640625,-18.5625 1.34375,-18.5625 c -0.078125,0 -0.171875,0.03125 -0.171875,0.15625 0,0.04687 0.015625,0.0625 0.046875,0.125 1.1875,1.234375 4.203125,4.375 4.203125,12.09375 0,7.71875 -3,10.875 -4.203125,12.109375 C 1.1875,5.96875 1.171875,6 1.171875,6.046875 c 0,0.125 0.09375,0.140625 0.171875,0.140625 0.265625,0 2.375,-1.828125 3.59375,-4.546875 1.234375,-2.75 1.578125,-5.4375 1.578125,-7.8125 z m 0,0"
             id="path14"
             style="stroke:none;stroke-opacity:1" />
        </g>
      </g>
    </g>
    <path
       style="fill:#000000;fill-opacity:1;stroke:#000000;stroke-width:1.00484;stroke-dasharray:none;stroke-opacity:1;marker-end:url(#ArrowWide)"
       d="M 62.508042,413.97869 H 182.64624"
       id="path57" />
    <path
       style="fill:#000000;fill-opacity:1;stroke:#000000;stroke-width:1.00484;stroke-dasharray:none;stroke-opacity:1;marker-end:url(#ArrowWide)"
       d="M 63.257445,414.61919 260.89448,312.11605"
       id="path59"
       sodipodi:nodetypes="cc" />
    <path
       style="fill:#000000;fill-opacity:1;stroke:#000000;stroke-width:1.00484;stroke-dasharray:none;stroke-opacity:1;marker-end:url(#ArrowWide)"
       d="M 63.257445,414.61919 260.89448,312.11605"
       id="path60"
       sodipodi:nodetypes="cc" />
    <path
       style="fill:#000000;fill-opacity:1;stroke:#000000;stroke-width:1.00484;stroke-dasharray:none;stroke-opacity:1;marker-end:url(#ArrowWide)"
       d="M 63.257445,414.61919 260.89448,312.11605"
       id="path61"
       sodipodi:nodetypes="cc" />
    <path
       style="fill:#000000;fill-opacity:1;stroke:#000000;stroke-width:1.00484;stroke-dasharray:none;stroke-opacity:1;marker-end:url(#ArrowWide)"
       d="M 63.103188,414.84979 427.41608,349.21765"
       id="path62"
       sodipodi:nodetypes="cc" />
    <g
       inkscape:label=""
       transform="matrix(3.9156147,0,0,3.9156147,203.13417,337.34995)"
       id="g73">
      <g
         fill="#000000"
         fill-opacity="1"
         id="g64"
         transform="matrix(0.352778,0,0,0.352778,-1.14957,-0.704673)">
        <g
           id="g63"
           transform="translate(1.993,20.559999)">
          <path
             d="m 11.046875,-9.96875 c 0.5,0 0.703125,0 0.703125,-0.46875 0,-0.25 -0.203125,-0.25 -0.640625,-0.25 H 9.09375 c 0.46875,-2.546875 0.8125,-4.3125 1.015625,-5.09375 0.15625,-0.59375 0.671875,-1.171875 1.3125,-1.171875 0.515625,0 1.046875,0.21875 1.296875,0.453125 -0.96875,0.09375 -1.265625,0.8125 -1.265625,1.234375 0,0.5 0.375,0.796875 0.84375,0.796875 0.484375,0 1.234375,-0.421875 1.234375,-1.359375 0,-1.046875 -1.046875,-1.625 -2.125,-1.625 -1.078125,0 -2.109375,0.796875 -2.609375,1.765625 -0.453125,0.875 -0.6875,1.765625 -1.265625,5 H 5.875 c -0.46875,0 -0.71875,0 -0.71875,0.453125 0,0.265625 0.140625,0.265625 0.640625,0.265625 h 1.59375 C 6.9375,-7.65625 5.921875,-2.0625 5.359375,0.59375 4.9375,2.75 4.5625,4.5625 3.328125,4.5625 c -0.078125,0 -0.796875,0 -1.25,-0.46875 C 3.34375,3.984375 3.34375,2.90625 3.34375,2.875 3.34375,2.375 2.96875,2.078125 2.5,2.078125 2,2.078125 1.265625,2.5 1.265625,3.4375 c 0,1.078125 1.09375,1.625 2.0625,1.625 2.515625,0 3.5625,-4.546875 3.828125,-5.78125 0.453125,-1.90625 1.671875,-8.5 1.796875,-9.25 z m 0,0"
             id="path63" />
        </g>
      </g>
      <g
         fill="#000000"
         fill-opacity="1"
         id="g66"
         transform="matrix(0.352778,0,0,0.352778,-1.14957,-0.704673)">
        <g
           id="g65"
           transform="translate(16.601999,20.559999)">
          <path
             d="m 7.578125,6.046875 c 0,-0.03125 0,-0.078125 -0.0625,-0.15625 -1.140625,-1.15625 -4.1875,-4.328125 -4.1875,-12.0625 0,-7.734375 2.984375,-10.875 4.203125,-12.109375 0,-0.03125 0.046875,-0.07813 0.046875,-0.15625 0,-0.07813 -0.0625,-0.125 -0.171875,-0.125 -0.265625,0 -2.375,1.828125 -3.59375,4.5625 -1.234375,2.75 -1.578125,5.421875 -1.578125,7.8125 0,1.78125 0.171875,4.796875 1.65625,8 1.1875,2.578125 3.21875,4.375 3.515625,4.375 0.125,0 0.171875,-0.046875 0.171875,-0.140625 z m 0,0"
             id="path64" />
        </g>
      </g>
      <g
         fill="#000000"
         fill-opacity="1"
         id="g68"
         transform="matrix(0.352778,0,0,0.352778,-1.14957,-0.704673)">
        <g
           id="g67"
           transform="translate(25.379999,20.559999)">
          <path
             d="m 11.75,-10.109375 c -0.796875,0.140625 -1.09375,0.734375 -1.09375,1.21875 0,0.59375 0.46875,0.78125 0.8125,0.78125 0.75,0 1.265625,-0.640625 1.265625,-1.3125 0,-1.03125 -1.1875,-1.5 -2.234375,-1.5 -1.5,0 -2.34375,1.484375 -2.5625,1.953125 -0.578125,-1.859375 -2.109375,-1.953125 -2.5625,-1.953125 -2.53125,0 -3.859375,3.234375 -3.859375,3.78125 0,0.109375 0.09375,0.234375 0.265625,0.234375 0.203125,0 0.25,-0.15625 0.296875,-0.25 0.84375,-2.75 2.5,-3.28125 3.21875,-3.28125 1.125,0 1.34375,1.046875 1.34375,1.640625 C 6.640625,-8.25 6.5,-7.6875 6.1875,-6.5 l -0.828125,3.40625 c -0.375,1.484375 -1.09375,2.84375 -2.40625,2.84375 -0.125,0 -0.75,0 -1.265625,-0.3125 0.890625,-0.1875 1.09375,-0.921875 1.09375,-1.21875 0,-0.5 -0.375,-0.796875 -0.84375,-0.796875 -0.59375,0 -1.25,0.515625 -1.25,1.3125 0,1.046875 1.171875,1.515625 2.234375,1.515625 1.1875,0 2.03125,-0.9375 2.5625,-1.953125 C 5.875,-0.25 7.109375,0.25 8.03125,0.25 c 2.53125,0 3.859375,-3.25 3.859375,-3.796875 0,-0.125 -0.09375,-0.21875 -0.25,-0.21875 -0.21875,0 -0.234375,0.125 -0.3125,0.328125 -0.671875,2.171875 -2.109375,3.1875 -3.21875,3.1875 -0.875,0 -1.34375,-0.640625 -1.34375,-1.65625 0,-0.546875 0.09375,-0.9375 0.5,-2.578125 L 8.125,-7.859375 C 8.5,-9.34375 9.34375,-10.4375 10.484375,-10.4375 c 0.04687,0 0.734375,0 1.265625,0.328125 z m 0,0"
             id="path66" />
        </g>
      </g>
      <g
         fill="#000000"
         fill-opacity="1"
         id="g70"
         transform="matrix(0.352778,0,0,0.352778,-1.14957,-0.704673)">
        <g
           id="g69"
           transform="translate(39.172001,28)">
          <path
             d="m 10.328125,-3.84375 h -0.4375 C 9.640625,-2.078125 9.4375,-1.78125 9.34375,-1.640625 9.21875,-1.4375 7.4375,-1.4375 7.09375,-1.4375 H 2.328125 c 0.890625,-0.96875 2.625,-2.71875 4.734375,-4.75 1.515625,-1.4375 3.265625,-3.125 3.265625,-5.578125 C 10.328125,-14.6875 8,-16.375 5.40625,-16.375 c -2.734375,0 -4.390625,2.390625 -4.390625,4.625 0,0.96875 0.71875,1.09375 1.015625,1.09375 0.25,0 0.984375,-0.140625 0.984375,-1.015625 0,-0.765625 -0.640625,-0.984375 -0.984375,-0.984375 -0.140625,0 -0.296875,0.01563 -0.390625,0.0625 0.46875,-2.09375 1.90625,-3.140625 3.421875,-3.140625 2.15625,0 3.5625,1.703125 3.5625,3.96875 0,2.15625 -1.265625,4.015625 -2.671875,5.625 L 1.015625,-0.5625 V 0 h 8.71875 z m 0,0"
             id="path68" />
        </g>
      </g>
      <g
         fill="#000000"
         fill-opacity="1"
         id="g72"
         transform="matrix(0.352778,0,0,0.352778,-1.14957,-0.704673)">
        <g
           id="g71"
           transform="translate(51.037998,20.559999)">
          <path
             d="m 6.515625,-6.171875 c 0,-1.78125 -0.171875,-4.8125 -1.65625,-8 C 3.671875,-16.75 1.640625,-18.5625 1.34375,-18.5625 c -0.078125,0 -0.171875,0.03125 -0.171875,0.15625 0,0.04687 0.015625,0.0625 0.046875,0.125 1.1875,1.234375 4.203125,4.375 4.203125,12.09375 0,7.71875 -3,10.875 -4.203125,12.109375 C 1.1875,5.96875 1.171875,6 1.171875,6.046875 c 0,0.125 0.09375,0.140625 0.171875,0.140625 0.265625,0 2.375,-1.828125 3.59375,-4.546875 1.234375,-2.75 1.578125,-5.4375 1.578125,-7.8125 z m 0,0"
             id="path70" />
        </g>
      </g>
    </g>
    <g
       inkscape:label=""
       transform="matrix(3.9156147,0,0,3.9156147,396.05445,301.02399)"
       id="g84">
      <g
         fill="#000000"
         fill-opacity="1"
         id="g75"
         transform="matrix(0.352778,0,0,0.352778,-1.14957,-0.704673)">
        <g
           id="g74"
           transform="translate(1.993,20.559999)">
          <path
             d="m 11.046875,-9.96875 c 0.5,0 0.703125,0 0.703125,-0.46875 0,-0.25 -0.203125,-0.25 -0.640625,-0.25 H 9.09375 c 0.46875,-2.546875 0.8125,-4.3125 1.015625,-5.09375 0.15625,-0.59375 0.671875,-1.171875 1.3125,-1.171875 0.515625,0 1.046875,0.21875 1.296875,0.453125 -0.96875,0.09375 -1.265625,0.8125 -1.265625,1.234375 0,0.5 0.375,0.796875 0.84375,0.796875 0.484375,0 1.234375,-0.421875 1.234375,-1.359375 0,-1.046875 -1.046875,-1.625 -2.125,-1.625 -1.078125,0 -2.109375,0.796875 -2.609375,1.765625 -0.453125,0.875 -0.6875,1.765625 -1.265625,5 H 5.875 c -0.46875,0 -0.71875,0 -0.71875,0.453125 0,0.265625 0.140625,0.265625 0.640625,0.265625 h 1.59375 C 6.9375,-7.65625 5.921875,-2.0625 5.359375,0.59375 4.9375,2.75 4.5625,4.5625 3.328125,4.5625 c -0.078125,0 -0.796875,0 -1.25,-0.46875 C 3.34375,3.984375 3.34375,2.90625 3.34375,2.875 3.34375,2.375 2.96875,2.078125 2.5,2.078125 2,2.078125 1.265625,2.5 1.265625,3.4375 c 0,1.078125 1.09375,1.625 2.0625,1.625 2.515625,0 3.5625,-4.546875 3.828125,-5.78125 0.453125,-1.90625 1.671875,-8.5 1.796875,-9.25 z m 0,0"
             id="path73" />
        </g>
      </g>
      <g
         fill="#000000"
         fill-opacity="1"
         id="g77"
         transform="matrix(0.352778,0,0,0.352778,-1.14957,-0.704673)">
        <g
           id="g76"
           transform="translate(16.601999,20.559999)">
          <path
             d="m 7.578125,6.046875 c 0,-0.03125 0,-0.078125 -0.0625,-0.15625 -1.140625,-1.15625 -4.1875,-4.328125 -4.1875,-12.0625 0,-7.734375 2.984375,-10.875 4.203125,-12.109375 0,-0.03125 0.046875,-0.07813 0.046875,-0.15625 0,-0.07813 -0.0625,-0.125 -0.171875,-0.125 -0.265625,0 -2.375,1.828125 -3.59375,4.5625 -1.234375,2.75 -1.578125,5.421875 -1.578125,7.8125 0,1.78125 0.171875,4.796875 1.65625,8 1.1875,2.578125 3.21875,4.375 3.515625,4.375 0.125,0 0.171875,-0.046875 0.171875,-0.140625 z m 0,0"
             id="path75" />
        </g>
      </g>
      <g
         fill="#000000"
         fill-opacity="1"
         id="g79"
         transform="matrix(0.352778,0,0,0.352778,-1.14957,-0.704673)">
        <g
           id="g78"
           transform="translate(25.379999,20.559999)">
          <path
             d="m 11.75,-10.109375 c -0.796875,0.140625 -1.09375,0.734375 -1.09375,1.21875 0,0.59375 0.46875,0.78125 0.8125,0.78125 0.75,0 1.265625,-0.640625 1.265625,-1.3125 0,-1.03125 -1.1875,-1.5 -2.234375,-1.5 -1.5,0 -2.34375,1.484375 -2.5625,1.953125 -0.578125,-1.859375 -2.109375,-1.953125 -2.5625,-1.953125 -2.53125,0 -3.859375,3.234375 -3.859375,3.78125 0,0.109375 0.09375,0.234375 0.265625,0.234375 0.203125,0 0.25,-0.15625 0.296875,-0.25 0.84375,-2.75 2.5,-3.28125 3.21875,-3.28125 1.125,0 1.34375,1.046875 1.34375,1.640625 C 6.640625,-8.25 6.5,-7.6875 6.1875,-6.5 l -0.828125,3.40625 c -0.375,1.484375 -1.09375,2.84375 -2.40625,2.84375 -0.125,0 -0.75,0 -1.265625,-0.3125 0.890625,-0.1875 1.09375,-0.921875 1.09375,-1.21875 0,-0.5 -0.375,-0.796875 -0.84375,-0.796875 -0.59375,0 -1.25,0.515625 -1.25,1.3125 0,1.046875 1.171875,1.515625 2.234375,1.515625 1.1875,0 2.03125,-0.9375 2.5625,-1.953125 C 5.875,-0.25 7.109375,0.25 8.03125,0.25 c 2.53125,0 3.859375,-3.25 3.859375,-3.796875 0,-0.125 -0.09375,-0.21875 -0.25,-0.21875 -0.21875,0 -0.234375,0.125 -0.3125,0.328125 -0.671875,2.171875 -2.109375,3.1875 -3.21875,3.1875 -0.875,0 -1.34375,-0.640625 -1.34375,-1.65625 0,-0.546875 0.09375,-0.9375 0.5,-2.578125 L 8.125,-7.859375 C 8.5,-9.34375 9.34375,-10.4375 10.484375,-10.4375 c 0.04687,0 0.734375,0 1.265625,0.328125 z m 0,0"
             id="path77" />
        </g>
      </g>
      <g
         fill="#000000"
         fill-opacity="1"
         id="g81"
         transform="matrix(0.352778,0,0,0.352778,-1.14957,-0.704673)">
        <g
           id="g80"
           transform="translate(39.172001,28)">
          <path
             d="m 5.484375,-8.421875 c 2.203125,0 3.171875,1.90625 3.171875,4.109375 0,2.96875 -1.59375,4.109375 -3.03125,4.109375 -1.3125,0 -3.4375,-0.640625 -4.109375,-2.546875 0.125,0.046875 0.25,0.046875 0.375,0.046875 0.59375,0 1.03125,-0.390625 1.03125,-1.03125 0,-0.71875 -0.546875,-1.046875 -1.03125,-1.046875 -0.421875,0 -1.078125,0.203125 -1.078125,1.109375 0,2.28125 2.234375,4.0625 4.859375,4.0625 2.75,0 4.859375,-2.15625 4.859375,-4.671875 0,-2.40625 -1.984375,-4.140625 -4.34375,-4.421875 1.890625,-0.390625 3.703125,-2.078125 3.703125,-4.328125 0,-1.9375 -1.953125,-3.34375 -4.1875,-3.34375 -2.265625,0 -4.234375,1.375 -4.234375,3.359375 0,0.875 0.640625,1.015625 0.953125,1.015625 0.53125,0 0.96875,-0.3125 0.96875,-0.953125 0,-0.65625 -0.4375,-0.96875 -0.96875,-0.96875 -0.09375,0 -0.21875,0 -0.3125,0.04687 0.71875,-1.640625 2.671875,-1.9375 3.546875,-1.9375 0.859375,0 2.5,0.421875 2.5,2.796875 0,0.703125 -0.109375,1.9375 -0.9375,3.03125 -0.75,0.96875 -1.59375,1.015625 -2.40625,1.09375 -0.125,0 -0.703125,0.046875 -0.796875,0.046875 -0.171875,0.015625 -0.28125,0.046875 -0.28125,0.21875 0,0.171875 0.03125,0.203125 0.53125,0.203125 z m 0,0"
             id="path79" />
        </g>
      </g>
      <g
         fill="#000000"
         fill-opacity="1"
         id="g83"
         transform="matrix(0.352778,0,0,0.352778,-1.14957,-0.704673)">
        <g
           id="g82"
           transform="translate(51.037998,20.559999)">
          <path
             d="m 6.515625,-6.171875 c 0,-1.78125 -0.171875,-4.8125 -1.65625,-8 C 3.671875,-16.75 1.640625,-18.5625 1.34375,-18.5625 c -0.078125,0 -0.171875,0.03125 -0.171875,0.15625 0,0.04687 0.015625,0.0625 0.046875,0.125 1.1875,1.234375 4.203125,4.375 4.203125,12.09375 0,7.71875 -3,10.875 -4.203125,12.109375 C 1.1875,5.96875 1.171875,6 1.171875,6.046875 c 0,0.125 0.09375,0.140625 0.171875,0.140625 0.265625,0 2.375,-1.828125 3.59375,-4.546875 1.234375,-2.75 1.578125,-5.4375 1.578125,-7.8125 z m 0,0"
             id="path81" />
        </g>
      </g>
    </g>
    <g
       inkscape:label=""
       transform="translate(191.00265,136.51012)"
       id="g85">
      <g
         fill="#000000"
         fill-opacity="1"
         id="g2"
         transform="matrix(0.352778,0,0,0.352778,-1.10547,-0.708422)">
        <g
           id="use1"
           transform="translate(1.993,18.93)">
          <path
             d="m -257.50192,-143.71951 c -0.10778,-0.26978 -0.43178,-0.91752 -0.43178,-1.1874 0,-0.10778 0.10777,-0.16201 1.56522,-1.29535 l 8.25782,-6.47673 c 11.49622,-8.90549 15.27431,-11.92797 21.15733,-12.41374 0.59372,-0.10777 1.45728,-0.10777 1.45728,-1.56519 0,-0.48578 -0.26978,-0.91756 -0.91755,-0.91756 -0.97151,0 -1.99698,0.16201 -2.91453,0.16201 h -3.23837 c -2.69864,0 -5.50522,-0.16201 -8.09592,-0.16201 -0.59368,0 -1.61918,0 -1.61918,1.51124 0,0.86356 0.59372,0.97151 1.13345,0.97151 0.91751,0.0539 2.05096,0.43178 2.05096,1.61918 0,1.72713 -2.59069,3.7781 -3.23837,4.26387 l -33.57106,26.12282 7.1244,-28.22778 c 0.75562,-2.91453 0.91752,-3.77809 7.01647,-3.77809 1.61918,0 2.3748,0 2.3748,-1.61918 0,-0.86357 -0.86357,-0.86357 -1.29535,-0.86357 -1.51124,0 -3.34631,0.16201 -4.96549,0.16201 h -10.09293 c -1.51124,0 -3.40027,-0.16201 -4.9655,-0.16201 -0.64767,0 -1.61918,0 -1.61918,1.61919 0,0.86356 0.75562,0.86356 2.05097,0.86356 5.23537,0 5.23537,0.64767 5.23537,1.61918 0,0.16201 0,0.70167 -0.32366,1.94302 l -11.60416,46.09275 c -0.75562,2.96852 -0.91752,3.83209 -6.90852,3.83209 -1.61918,0 -2.48275,0 -2.48275,1.56519 0,0.91755 0.75562,0.91755 1.29535,0.91755 1.61918,0 3.34631,-0.162 4.96549,-0.162 h 9.98498 c 1.61919,0 3.45426,0.162 5.07345,0.162 0.70162,0 1.61918,0 1.61918,-1.61918 0,-0.86356 -0.75562,-0.86356 -2.05097,-0.86356 -5.23537,0 -5.23537,-0.70167 -5.23537,-1.56523 0,-0.59369 0.53972,-2.69864 0.86356,-4.10193 l 3.34631,-13.22332 13.00746,-10.20087 c 2.48275,5.45127 7.01646,16.40773 10.52467,24.82748 0.26978,0.48577 0.43179,1.0255 0.43179,1.61918 0,2.53674 -3.40027,2.64469 -4.20988,2.64469 -0.75562,0 -1.61918,0 -1.61918,1.61918 0,0.86356 0.97151,0.86356 1.1874,0.86356 3.02247,0 6.20688,-0.162 9.17537,-0.162 h 4.10193 c 1.29535,0 2.75263,0.162 4.04797,0.162 0.48574,0 1.45725,0 1.45725,-1.61918 0,-0.86356 -0.80957,-0.86356 -1.61918,-0.86356 -3.18438,-0.10778 -4.31782,-0.75562 -5.61317,-3.83209 z m 0,0"
             id="path2"
             style="fill:#0000ff;fill-opacity:1;stroke-width:3.45426" />
        </g>
      </g>
    </g>
    <g
       inkscape:label=""
       transform="matrix(2.9936833,0,0,2.9936833,603.04175,415.14165)"
       id="g88">
      <g
         fill="#000000"
         fill-opacity="1"
         id="g87"
         transform="matrix(0.352778,0,0,0.352778,-185.94551,0.70383843)">
        <g
           id="g86"
           transform="translate(1.993,17.969999)">
          <path
             d="m 10.40625,-7.953125 c 0,-1.515625 -0.01563,-4.09375 -1.0625,-6.078125 -0.921875,-1.734375 -2.375,-2.34375 -3.671875,-2.34375 -1.1875,0 -2.703125,0.546875 -3.640625,2.328125 -0.984375,1.859375 -1.09375,4.15625 -1.09375,6.09375 0,1.40625 0.03125,3.5625 0.796875,5.453125 1.0625,2.546875 2.96875,2.890625 3.9375,2.890625 1.140625,0 2.875,-0.46875 3.890625,-2.8125 0.75,-1.71875 0.84375,-3.71875 0.84375,-5.53125 z M 5.671875,0 C 4.09375,0 3.140625,-1.359375 2.796875,-3.25 2.53125,-4.703125 2.53125,-6.84375 2.53125,-8.234375 c 0,-1.90625 0,-3.484375 0.3125,-5 0.484375,-2.109375 1.859375,-2.75 2.828125,-2.75 1.015625,0 2.328125,0.671875 2.796875,2.703125 0.328125,1.40625 0.359375,3.078125 0.359375,5.046875 0,1.625 0,3.59375 -0.296875,5.0625 C 8,-0.46875 6.546875,0 5.671875,0 Z m 0,0"
             id="path85" />
        </g>
      </g>
    </g>
  </g>
</svg>
